<?xml version="1.0" encoding="UTF-8"?>
<!DOCTYPE svg PUBLIC "-//W3C//DTD SVG 1.1//EN" "http://www.w3.org/Graphics/SVG/1.1/DTD/svg11.dtd">
<svg xmlns="http://www.w3.org/2000/svg" version="1.1" width="489px" height="510px" style="shape-rendering:geometricPrecision; text-rendering:geometricPrecision; image-rendering:optimizeQuality; fill-rule:evenodd; clip-rule:evenodd" xmlns:xlink="http://www.w3.org/1999/xlink">
<g><path style="opacity:0.004" fill="#000000" d="M 407.5,1.5 C 408.833,2.16667 408.833,2.16667 407.5,1.5 Z"/></g>
<g><path style="opacity:0.937" fill="#941318" d="M 190.5,15.5 C 181.732,12.4584 172.732,11.7917 163.5,13.5C 161.488,15.3414 159.155,16.3414 156.5,16.5C 156.5,17.5 156.5,18.5 156.5,19.5C 153.857,20.454 151.19,21.454 148.5,22.5C 148.859,20.629 149.859,19.129 151.5,18C 161.522,10.409 172.522,8.40903 184.5,12C 187.025,12.4238 189.025,13.5905 190.5,15.5 Z"/></g>
<g><path style="opacity:0.004" fill="#000000" d="M 380.5,11.5 C 381.833,12.1667 381.833,12.1667 380.5,11.5 Z"/></g>
<g><path style="opacity:1" fill="#cc181c" d="M 190.5,15.5 C 196.081,18.2948 200.081,22.6282 202.5,28.5C 204.202,36.0463 204.868,43.713 204.5,51.5C 202.993,53.2894 201.66,55.2894 200.5,57.5C 198.257,58.4742 195.924,58.8076 193.5,58.5C 193.833,61.1667 194.167,63.8333 194.5,66.5C 192.876,66.6399 191.71,65.9733 191,64.5C 188.2,65.1253 185.366,65.792 182.5,66.5C 183.269,68.8008 184.269,68.9675 185.5,67C 187.641,66.1163 189.307,66.6163 190.5,68.5C 186.117,71.6546 181.617,71.9879 177,69.5C 175.174,70.0104 175.007,70.8438 176.5,72C 167.578,72.4215 159.245,70.5882 151.5,66.5C 148.013,60.9067 145.18,54.9067 143,48.5C 142.359,42.4717 142.526,36.4717 143.5,30.5C 144.169,27.1511 145.836,24.4844 148.5,22.5C 151.19,21.454 153.857,20.454 156.5,19.5C 156.5,18.5 156.5,17.5 156.5,16.5C 159.155,16.3414 161.488,15.3414 163.5,13.5C 172.732,11.7917 181.732,12.4584 190.5,15.5 Z"/></g>
<g><path style="opacity:0.127" fill="#043d0d" d="M 269.5,14.5 C 251.472,14.2206 233.472,14.5539 215.5,15.5C 215.611,14.8826 215.944,14.3826 216.5,14C 234.338,13.1714 252.005,13.3381 269.5,14.5 Z"/></g>
<g><path style="opacity:0.024" fill="#022d04" d="M 287.5,14.5 C 303.995,13.3384 320.662,13.1717 337.5,14C 338.416,14.2784 339.082,14.7784 339.5,15.5C 322.201,14.5415 304.868,14.2082 287.5,14.5 Z"/></g>
<g><path style="opacity:1" fill="#2f9d40" d="M 269.5,14.5 C 270.833,14.5 271.5,15.1667 271.5,16.5C 271.5,33.5 271.5,50.5 271.5,67.5C 269.023,67.0508 267.023,67.7175 265.5,69.5C 257.833,69.8333 250.167,70.1667 242.5,70.5C 234.069,70.6378 225.735,70.1378 217.5,69C 216.57,67.8061 215.903,66.4728 215.5,65C 215.543,48.6667 215.543,32.1667 215.5,15.5C 233.472,14.5539 251.472,14.2206 269.5,14.5 Z"/></g>
<g><path style="opacity:1" fill="#2e9d3f" d="M 335.5,16.5 C 337.415,16.2155 339.081,16.5489 340.5,17.5C 340.778,35.1944 340.445,52.861 339.5,70.5C 322.163,70.6666 304.83,70.4999 287.5,70C 287,69.5 286.5,69 286,68.5C 285.333,52.1667 285.333,35.8333 286,19.5C 286.692,18.9747 287.192,18.3081 287.5,17.5C 303.486,16.5006 319.486,16.1672 335.5,16.5 Z"/></g>
<g><path style="opacity:0.004" fill="#000000" d="M 476.5,28.5 C 477.833,29.1667 477.833,29.1667 476.5,28.5 Z"/></g>
<g><path style="opacity:0.536" fill="#276330" d="M 287.5,14.5 C 304.868,14.2082 322.201,14.5415 339.5,15.5C 341.411,15.5743 342.578,16.5743 343,18.5C 343.667,35.1667 343.667,51.8333 343,68.5C 342.768,69.7375 342.268,70.7375 341.5,71.5C 341.83,53.3256 341.497,35.3256 340.5,17.5C 339.081,16.5489 337.415,16.2155 335.5,16.5C 318.628,15.1887 301.628,15.1887 284.5,16.5C 284.973,15.0937 285.973,14.427 287.5,14.5 Z"/></g>
<g><path style="opacity:0.502" fill="#841713" d="M 202.5,28.5 C 206.36,35.9613 207.027,43.628 204.5,51.5C 204.868,43.713 204.202,36.0463 202.5,28.5 Z"/></g>
<g><path style="opacity:0.004" fill="#000000" d="M 353.5,45.5 C 354.833,46.1667 354.833,46.1667 353.5,45.5 Z"/></g>
<g><path style="opacity:0.338" fill="#26692d" d="M 284.5,17.5 C 284.193,35.5468 284.527,53.5468 285.5,71.5C 284.883,71.3893 284.383,71.056 284,70.5C 283.171,52.6619 283.338,34.9952 284.5,17.5 Z"/></g>
<g><path style="opacity:0.004" fill="#000000" d="M 401.5,53.5 C 402.833,54.1667 402.833,54.1667 401.5,53.5 Z"/></g>
<g><path style="opacity:0.796" fill="#841317" d="M 143.5,30.5 C 142.526,36.4717 142.359,42.4717 143,48.5C 145.18,54.9067 148.013,60.9067 151.5,66.5C 145.739,61.9999 142.239,55.9999 141,48.5C 140.738,43.5504 140.571,38.7171 140.5,34C 141.814,33.015 142.814,31.8484 143.5,30.5 Z"/></g>
<g><path style="opacity:1" fill="#2b7833" d="M 215.5,15.5 C 215.543,32.1667 215.543,48.6667 215.5,65C 215.903,66.4728 216.57,67.8061 217.5,69C 225.735,70.1378 234.069,70.6378 242.5,70.5C 250.167,70.1667 257.833,69.8333 265.5,69.5C 267.023,67.7175 269.023,67.0508 271.5,67.5C 271.5,50.5 271.5,33.5 271.5,16.5C 272.117,16.6107 272.617,16.944 273,17.5C 273.167,25.8333 273.333,34.1667 273.5,42.5C 273.626,51.9041 273.126,61.2374 272,70.5C 271.097,71.7014 269.931,72.5348 268.5,73C 252.461,73.4671 236.628,73.6337 221,73.5C 217.314,73.3771 214.647,71.7104 213,68.5C 213.028,51.5052 213.362,34.5052 214,17.5C 214.278,16.5842 214.778,15.9175 215.5,15.5 Z"/></g>
<g><path style="opacity:0.996" fill="#b11c1e" d="M 204.5,51.5 C 201.091,63.9083 193.091,71.575 180.5,74.5C 174.797,74.6252 169.13,74.2919 163.5,73.5C 158.538,72.69 154.538,70.3567 151.5,66.5C 159.245,70.5882 167.578,72.4215 176.5,72C 175.007,70.8438 175.174,70.0104 177,69.5C 181.617,71.9879 186.117,71.6546 190.5,68.5C 189.307,66.6163 187.641,66.1163 185.5,67C 184.269,68.9675 183.269,68.8008 182.5,66.5C 185.366,65.792 188.2,65.1253 191,64.5C 191.71,65.9733 192.876,66.6399 194.5,66.5C 194.167,63.8333 193.833,61.1667 193.5,58.5C 195.924,58.8076 198.257,58.4742 200.5,57.5C 201.66,55.2894 202.993,53.2894 204.5,51.5 Z"/></g>
<g><path style="opacity:0.918" fill="#359442" d="M 335.5,16.5 C 319.486,16.1672 303.486,16.5006 287.5,17.5C 287.192,18.3081 286.692,18.9747 286,19.5C 285.333,35.8333 285.333,52.1667 286,68.5C 286.5,69 287,69.5 287.5,70C 304.83,70.4999 322.163,70.6666 339.5,70.5C 340.445,52.861 340.778,35.1944 340.5,17.5C 341.497,35.3256 341.83,53.3256 341.5,71.5C 323.52,72.4162 305.52,72.7496 287.5,72.5C 286.508,72.6716 285.842,72.3382 285.5,71.5C 284.527,53.5468 284.193,35.5468 284.5,17.5C 284.5,17.1667 284.5,16.8333 284.5,16.5C 301.628,15.1887 318.628,15.1887 335.5,16.5 Z"/></g>
<g><path style="opacity:0.35" fill="#1f5f27" d="M 341.5,71.5 C 341.082,72.2216 340.416,72.7216 339.5,73C 321.995,73.8285 304.662,73.6618 287.5,72.5C 305.52,72.7496 323.52,72.4162 341.5,71.5 Z"/></g>
<g><path style="opacity:0.173" fill="#5c0607" d="M 163.5,73.5 C 169.13,74.2919 174.797,74.6252 180.5,74.5C 178.359,75.1633 176.025,75.4966 173.5,75.5C 169.859,75.6852 166.526,75.0186 163.5,73.5 Z"/></g>
<g><path style="opacity:0.004" fill="#000000" d="M 326.5,75.5 C 327.833,76.1667 327.833,76.1667 326.5,75.5 Z"/></g>
<g><path style="opacity:0.004" fill="#000000" d="M 14.5,76.5 C 15.8333,77.1667 15.8333,77.1667 14.5,76.5 Z"/></g>
<g><path style="opacity:0.004" fill="#000000" d="M 209.5,76.5 C 210.833,77.1667 210.833,77.1667 209.5,76.5 Z"/></g>
<g><path style="opacity:0.076" fill="#1c491e" d="M 171.5,82.5 C 163.833,83.1667 156.167,83.8333 148.5,84.5C 147.167,84.8333 145.833,85.1667 144.5,85.5C 145.058,84.2101 146.058,83.3768 147.5,83C 155.493,82.5003 163.493,82.3336 171.5,82.5 Z"/></g>
<g><path style="opacity:1" fill="#2f9d40" d="M 216.5,84.5 C 233.035,84.1882 249.535,84.5216 266,85.5C 267.168,86.5089 268.335,87.5089 269.5,88.5C 270.833,104.5 270.833,120.5 269.5,136.5C 268.618,137.76 267.618,138.926 266.5,140C 249.475,140.776 232.475,140.609 215.5,139.5C 214.361,121.877 214.194,104.21 215,86.5C 215.717,85.9558 216.217,85.2891 216.5,84.5 Z"/></g>
<g><path style="opacity:0.004" fill="#000000" d="M 470.5,92.5 C 471.833,93.1667 471.833,93.1667 470.5,92.5 Z"/></g>
<g><path style="opacity:1" fill="#2f8639" d="M 171.5,82.5 C 180.025,82.7703 188.692,82.9369 197.5,83C 198.416,83.2784 199.082,83.7784 199.5,84.5C 199.987,85.4734 200.487,86.4734 201,87.5C 201.5,104.83 201.667,122.163 201.5,139.5C 201.047,140.458 200.381,141.292 199.5,142C 181.833,142.667 164.167,142.667 146.5,142C 145.619,141.292 144.953,140.458 144.5,139.5C 144.5,121.833 144.5,104.167 144.5,86.5C 144.5,86.1667 144.5,85.8333 144.5,85.5C 145.833,85.1667 147.167,84.8333 148.5,84.5C 156.167,83.8333 163.833,83.1667 171.5,82.5 Z"/></g>
<g><path style="opacity:1" fill="#2e9d3f" d="M 148.5,84.5 C 164.549,84.0785 180.549,84.5785 196.5,86C 197.333,86.8333 198.167,87.6667 199,88.5C 200.136,96.4014 200.636,104.401 200.5,112.5C 200.409,121.851 200.075,131.184 199.5,140.5C 185.496,140.667 171.496,140.5 157.5,140C 154.242,139.788 151.076,139.288 148,138.5C 147.468,135.736 146.634,133.07 145.5,130.5C 146.04,129.252 146.707,128.085 147.5,127C 146.833,116.333 146.167,105.667 145.5,95C 147.825,93.1188 147.825,91.4522 145.5,90C 146.124,87.9149 147.124,86.0816 148.5,84.5 Z"/></g>
<g><path style="opacity:0.004" fill="#000000" d="M 92.5,102.5 C 93.8333,103.167 93.8333,103.167 92.5,102.5 Z"/></g>
<g><path style="opacity:0.3" fill="#236a2d" d="M 144.5,86.5 C 144.5,104.167 144.5,121.833 144.5,139.5C 143.048,137.152 142.382,134.486 142.5,131.5C 143.084,116.339 143.751,101.339 144.5,86.5 Z"/></g>
<g><path style="opacity:0.004" fill="#000000" d="M 314.5,108.5 C 315.833,109.167 315.833,109.167 314.5,108.5 Z"/></g>
<g><path style="opacity:0.371" fill="#204b24" d="M 199.5,84.5 C 201.411,84.5743 202.578,85.5743 203,87.5C 203.667,103.833 203.667,120.167 203,136.5C 202.768,137.737 202.268,138.737 201.5,139.5C 201.667,122.163 201.5,104.83 201,87.5C 200.487,86.4734 199.987,85.4734 199.5,84.5 Z"/></g>
<g><path style="opacity:0.917" fill="#33813d" d="M 216.5,84.5 C 233.662,83.3382 250.995,83.1715 268.5,84C 269.931,84.4652 271.097,85.2986 272,86.5C 272.667,103.833 272.667,121.167 272,138.5C 271.943,140.91 270.776,142.244 268.5,142.5C 252.163,142.667 235.83,142.5 219.5,142C 217.934,141.392 216.6,140.558 215.5,139.5C 232.475,140.609 249.475,140.776 266.5,140C 267.618,138.926 268.618,137.76 269.5,136.5C 270.833,120.5 270.833,104.5 269.5,88.5C 268.335,87.5089 267.168,86.5089 266,85.5C 249.535,84.5216 233.035,84.1882 216.5,84.5 Z"/></g>
<g><path style="opacity:0.514" fill="#24672d" d="M 216.5,84.5 C 216.217,85.2891 215.717,85.9558 215,86.5C 214.194,104.21 214.361,121.877 215.5,139.5C 214.833,139.5 214.167,139.5 213.5,139.5C 212.338,122.338 212.171,105.005 213,87.5C 213.422,85.5743 214.589,84.5743 216.5,84.5 Z"/></g>
<g><path style="opacity:0.004" fill="#000000" d="M 293.5,121.5 C 294.833,122.167 294.833,122.167 293.5,121.5 Z"/></g>
<g><path style="opacity:0.004" fill="#000000" d="M 128.5,125.5 C 129.833,126.167 129.833,126.167 128.5,125.5 Z"/></g>
<g><path style="opacity:0.004" fill="#000000" d="M 8.5,131.5 C 9.83333,132.167 9.83333,132.167 8.5,131.5 Z"/></g>
<g><path style="opacity:0.004" fill="#000000" d="M 479.5,132.5 C 480.833,133.167 480.833,133.167 479.5,132.5 Z"/></g>
<g><path style="opacity:0.004" fill="#000000" d="M 485.5,133.5 C 486.833,134.167 486.833,134.167 485.5,133.5 Z"/></g>
<g><path style="opacity:0.043" fill="#033206" d="M 213.5,139.5 C 214.167,139.5 214.833,139.5 215.5,139.5C 216.6,140.558 217.934,141.392 219.5,142C 235.83,142.5 252.163,142.667 268.5,142.5C 252.005,143.662 235.338,143.828 218.5,143C 216.119,142.777 214.453,141.61 213.5,139.5 Z"/></g>
<g><path style="opacity:0.004" fill="#000000" d="M 224.5,148.5 C 225.833,149.167 225.833,149.167 224.5,148.5 Z"/></g>
<g><path style="opacity:0.004" fill="#000000" d="M 143.5,150.5 C 144.833,151.167 144.833,151.167 143.5,150.5 Z"/></g>
<g><path style="opacity:0.098" fill="#36703d" d="M 202.5,170.5 C 201.662,170.842 201.328,171.508 201.5,172.5C 200.71,167.495 200.043,162.328 199.5,157C 199.316,155.624 198.649,154.791 197.5,154.5C 179.961,153.188 162.294,153.188 144.5,154.5C 144.611,153.883 144.944,153.383 145.5,153C 163.167,152.333 180.833,152.333 198.5,153C 200.333,153.5 201.5,154.667 202,156.5C 202.499,161.155 202.666,165.821 202.5,170.5 Z"/></g>
<g><path style="opacity:1" fill="#2f9d40" d="M 197.5,154.5 C 198.649,154.791 199.316,155.624 199.5,157C 200.043,162.328 200.71,167.495 201.5,172.5C 201.5,182.833 201.5,193.167 201.5,203.5C 201.784,206.857 200.451,209.191 197.5,210.5C 195.801,210.66 194.134,210.494 192.5,210C 193.731,208.817 193.731,207.651 192.5,206.5C 191.614,207.325 191.281,208.325 191.5,209.5C 182.892,209.384 174.392,209.384 166,209.5C 162.667,208.833 159.333,208.167 156,207.5C 154.667,208.167 153.333,208.833 152,209.5C 150.14,207.799 147.973,206.799 145.5,206.5C 145.653,197.072 145.653,187.739 145.5,178.5C 145.709,177.006 146.376,175.839 147.5,175C 146.833,169.667 146.167,164.333 145.5,159C 146.701,158.097 147.535,156.931 148,155.5C 164.423,154.508 180.923,154.175 197.5,154.5 Z"/></g>
<g><path style="opacity:1" fill="#2f9d40" d="M 271.5,157.5 C 272.167,157.5 272.5,157.833 272.5,158.5C 271.691,160.292 271.191,162.292 271,164.5C 271.037,180.118 270.204,195.285 268.5,210C 251.5,210.667 234.5,210.667 217.5,210C 216.953,209.075 216.287,208.242 215.5,207.5C 214.334,191.177 214.167,174.844 215,158.5C 215.465,157.069 216.299,155.903 217.5,155C 234.167,154.333 250.833,154.333 267.5,155C 268.984,155.662 270.317,156.496 271.5,157.5 Z"/></g>
<g><path style="opacity:1" fill="#309d41" d="M 338.5,154.5 C 339.833,155.167 340.833,156.167 341.5,157.5C 341.5,163.833 341.5,170.167 341.5,176.5C 341.5,187.5 341.5,198.5 341.5,209.5C 340.167,210.167 338.833,210.833 337.5,211.5C 320.82,211.208 304.153,210.541 287.5,209.5C 286.758,208.713 285.925,208.047 285,207.5C 284.333,190.833 284.333,174.167 285,157.5C 286.255,156.789 287.421,155.956 288.5,155C 305.163,154.5 321.83,154.333 338.5,154.5 Z"/></g>
<g><path style="opacity:0.004" fill="#000000" d="M 38.5,158.5 C 39.8333,159.167 39.8333,159.167 38.5,158.5 Z"/></g>
<g><path style="opacity:0.004" fill="#000000" d="M 80.5,158.5 C 81.8333,159.167 81.8333,159.167 80.5,158.5 Z"/></g>
<g><path style="opacity:0.097" fill="#0c2f0d" d="M 341.5,157.5 C 342.203,163.733 342.87,170.066 343.5,176.5C 342.833,176.5 342.167,176.5 341.5,176.5C 341.5,170.167 341.5,163.833 341.5,157.5 Z"/></g>
<g><path style="opacity:0.114" fill="#1a431e" d="M 144.5,154.5 C 143.62,161.123 143.287,167.789 143.5,174.5C 143.167,174.5 142.833,174.5 142.5,174.5C 142.334,168.491 142.501,162.491 143,156.5C 143.278,155.584 143.778,154.918 144.5,154.5 Z"/></g>
<g><path style="opacity:0.004" fill="#000000" d="M 77.5,165.5 C 78.8333,166.167 78.8333,166.167 77.5,165.5 Z"/></g>
<g><path style="opacity:1" fill="#e3e6df" d="M 202.5,170.5 C 205.625,171.479 208.958,171.813 212.5,171.5C 212.5,181.833 212.5,192.167 212.5,202.5C 209.375,203.479 206.042,203.813 202.5,203.5C 202.167,203.5 201.833,203.5 201.5,203.5C 201.5,193.167 201.5,182.833 201.5,172.5C 201.328,171.508 201.662,170.842 202.5,170.5 Z"/></g>
<g><path style="opacity:1" fill="#dae2d7" d="M 279.5,171.5 C 280.167,171.5 280.833,171.5 281.5,171.5C 283.44,181.91 284.107,192.577 283.5,203.5C 279.5,203.5 275.5,203.5 271.5,203.5C 271.5,192.833 271.5,182.167 271.5,171.5C 274.167,171.5 276.833,171.5 279.5,171.5 Z"/></g>
<g><path style="opacity:0.004" fill="#000000" d="M 434.5,177.5 C 435.833,178.167 435.833,178.167 434.5,177.5 Z"/></g>
<g><path style="opacity:1" fill="#cbc9c7" d="M 138.5,175.5 C 139.833,175.5 141.167,175.5 142.5,175.5C 142.5,186.167 142.5,196.833 142.5,207.5C 131.404,208.262 120.404,209.762 109.5,212C 110.056,212.383 110.389,212.883 110.5,213.5C 100.594,212.387 90.9278,210.22 81.5,207C 77.8033,204.158 74.1366,201.325 70.5,198.5C 70.5,196.833 70.5,195.167 70.5,193.5C 71.3636,192.312 72.3636,191.145 73.5,190C 94.1229,180.787 115.79,175.954 138.5,175.5 Z"/></g>
<g><path style="opacity:1" fill="#9cbd9d" d="M 138.5,175.5 C 139.568,174.566 140.901,174.232 142.5,174.5C 142.833,174.5 143.167,174.5 143.5,174.5C 143.5,185.5 143.5,196.5 143.5,207.5C 143.167,207.5 142.833,207.5 142.5,207.5C 142.5,196.833 142.5,186.167 142.5,175.5C 141.167,175.5 139.833,175.5 138.5,175.5 Z"/></g>
<g><path style="opacity:1" fill="#e5e4e1" d="M 341.5,176.5 C 342.167,176.5 342.833,176.5 343.5,176.5C 359.004,177.637 374.004,180.637 388.5,185.5C 390.426,187.293 392.759,188.293 395.5,188.5C 397.514,188.392 399.18,189.058 400.5,190.5C 401.75,193.006 402.416,195.673 402.5,198.5C 401.325,198.281 400.325,198.614 399.5,199.5C 400.641,200.425 400.641,201.259 399.5,202C 386.048,209.309 371.715,212.476 356.5,211.5C 351.515,210.752 346.515,210.085 341.5,209.5C 341.5,198.5 341.5,187.5 341.5,176.5 Z"/></g>
<g><path style="opacity:0.004" fill="#000000" d="M 437.5,185.5 C 438.833,186.167 438.833,186.167 437.5,185.5 Z"/></g>
<g><path style="opacity:1" fill="#82a385" d="M 202.5,170.5 C 205.833,170.5 209.167,170.5 212.5,170.5C 213.494,180.987 213.828,191.654 213.5,202.5C 213.167,202.5 212.833,202.5 212.5,202.5C 212.5,192.167 212.5,181.833 212.5,171.5C 208.958,171.813 205.625,171.479 202.5,170.5 Z"/></g>
<g><path style="opacity:0.153" fill="#636362" d="M 388.5,185.5 C 391.241,185.707 393.574,186.707 395.5,188.5C 392.759,188.293 390.426,187.293 388.5,185.5 Z"/></g>
<g><path style="opacity:0.004" fill="#000000" d="M 416.5,191.5 C 417.833,192.167 417.833,192.167 416.5,191.5 Z"/></g>
<g><path style="opacity:0.004" fill="#000000" d="M 437.5,202.5 C 438.833,203.167 438.833,203.167 437.5,202.5 Z"/></g>
<g><path style="opacity:1" fill="#cccac8" d="M 400.5,190.5 C 402.533,191.898 403.533,193.898 403.5,196.5C 402.925,201.145 402.592,205.812 402.5,210.5C 402.53,222.553 403.53,234.219 405.5,245.5C 403.556,256.58 402.889,267.913 403.5,279.5C 402.511,284.975 402.178,290.642 402.5,296.5C 402.699,317.804 399.699,338.638 393.5,359C 393.836,360.03 394.503,360.53 395.5,360.5C 390.344,366.514 386.844,373.514 385,381.5C 381.979,386.894 379.145,392.394 376.5,398C 378.134,398.494 379.801,398.66 381.5,398.5C 379.782,399.224 377.948,399.891 376,400.5C 373.282,405.526 370.115,410.193 366.5,414.5C 366.157,412.775 365.157,412.275 363.5,413C 363.833,413.333 364.167,413.667 364.5,414C 362.481,415.777 360.981,417.944 360,420.5C 359.586,420.043 359.086,419.709 358.5,419.5C 357.402,421.632 356.402,423.798 355.5,426C 359.821,426.499 364.154,426.666 368.5,426.5C 390.272,427.604 411.938,429.771 433.5,433C 447.525,435.202 461.525,437.536 475.5,440C 476.28,441.073 476.113,442.24 475,443.5C 469.159,450.485 462.326,456.151 454.5,460.5C 455.461,455.149 458.794,452.316 464.5,452C 463.62,450.644 463.286,449.144 463.5,447.5C 467.3,447.023 470.3,445.19 472.5,442C 407.228,451.3 341.561,456.8 275.5,458.5C 261.148,458.488 246.815,457.988 232.5,457C 233.056,456.617 233.389,456.117 233.5,455.5C 276.306,439.526 305.139,409.859 320,366.5C 332.971,318.533 333.971,270.2 323,221.5C 318.263,220.531 313.43,220.197 308.5,220.5C 326.158,219.01 343.825,216.51 361.5,213C 359.618,212.802 357.952,212.302 356.5,211.5C 371.715,212.476 386.048,209.309 399.5,202C 400.641,201.259 400.641,200.425 399.5,199.5C 400.325,198.614 401.325,198.281 402.5,198.5C 402.416,195.673 401.75,193.006 400.5,190.5 Z"/></g>
<g><path style="opacity:1" fill="#503d1c" d="M 271.5,203.5 C 275.5,203.5 279.5,203.5 283.5,203.5C 282.493,207.779 283.826,210.779 287.5,212.5C 287.5,212.833 287.5,213.167 287.5,213.5C 281.604,214.152 279.27,211.485 280.5,205.5C 277.833,205.5 275.167,205.5 272.5,205.5C 272.66,207.199 272.494,208.866 272,210.5C 271.329,211.252 270.496,211.586 269.5,211.5C 271.051,209.087 271.717,206.421 271.5,203.5 Z"/></g>
<g><path style="opacity:1" fill="#edecf1" d="M 70.5,198.5 C 74.1366,201.325 77.8033,204.158 81.5,207C 90.9278,210.22 100.594,212.387 110.5,213.5C 176.17,224.135 242.17,226.469 308.5,220.5C 313.43,220.197 318.263,220.531 323,221.5C 333.971,270.2 332.971,318.533 320,366.5C 305.139,409.859 276.306,439.526 233.5,455.5C 222.819,457.878 211.986,458.878 201,458.5C 187.113,458.301 173.28,457.634 159.5,456.5C 142.104,451.872 127.604,442.539 116,428.5C 115,426.5 114,424.5 113,422.5C 112.617,423.056 112.117,423.389 111.5,423.5C 109.11,422.109 107.443,420.109 106.5,417.5C 106.068,416.29 105.401,415.29 104.5,414.5C 95.6745,402.518 88.6745,389.518 83.5,375.5C 83.7709,373.62 83.1042,372.287 81.5,371.5C 73.2741,347.57 68.7741,322.904 68,297.5C 67.2115,270.814 67.3781,244.147 68.5,217.5C 69.465,211.342 70.1316,205.008 70.5,198.5 Z"/></g>
<g><path style="opacity:1" fill="#389540" d="M 197.5,154.5 C 180.923,154.175 164.423,154.508 148,155.5C 147.535,156.931 146.701,158.097 145.5,159C 146.167,164.333 146.833,169.667 147.5,175C 146.376,175.839 145.709,177.006 145.5,178.5C 145.653,187.739 145.653,197.072 145.5,206.5C 147.973,206.799 150.14,207.799 152,209.5C 153.333,208.833 154.667,208.167 156,207.5C 159.333,208.167 162.667,208.833 166,209.5C 174.392,209.384 182.892,209.384 191.5,209.5C 191.281,208.325 191.614,207.325 192.5,206.5C 193.731,207.651 193.731,208.817 192.5,210C 194.134,210.494 195.801,210.66 197.5,210.5C 180.675,211.497 163.675,211.83 146.5,211.5C 144.738,210.738 143.738,209.404 143.5,207.5C 143.5,196.5 143.5,185.5 143.5,174.5C 143.287,167.789 143.62,161.123 144.5,154.5C 162.294,153.188 179.961,153.188 197.5,154.5 Z"/></g>
<g><path style="opacity:0.102" fill="#5c5a5b" d="M 70.5,193.5 C 70.5,195.167 70.5,196.833 70.5,198.5C 70.1316,205.008 69.465,211.342 68.5,217.5C 68.3232,209.284 68.9899,201.284 70.5,193.5 Z"/></g>
<g><path style="opacity:1" fill="#387238" d="M 271.5,157.5 C 270.317,156.496 268.984,155.662 267.5,155C 250.833,154.333 234.167,154.333 217.5,155C 216.299,155.903 215.465,157.069 215,158.5C 214.167,174.844 214.334,191.177 215.5,207.5C 216.287,208.242 216.953,209.075 217.5,210C 234.5,210.667 251.5,210.667 268.5,210C 270.204,195.285 271.037,180.118 271,164.5C 271.191,162.292 271.691,160.292 272.5,158.5C 272.5,162.5 272.5,166.5 272.5,170.5C 275.059,170.198 277.393,170.532 279.5,171.5C 276.833,171.5 274.167,171.5 271.5,171.5C 271.5,182.167 271.5,192.833 271.5,203.5C 271.717,206.421 271.051,209.087 269.5,211.5C 252.211,212.639 234.877,212.805 217.5,212C 216.234,211.691 215.067,211.191 214,210.5C 213.503,207.854 213.336,205.187 213.5,202.5C 213.828,191.654 213.494,180.987 212.5,170.5C 212.334,165.821 212.501,161.155 213,156.5C 213.5,154.667 214.667,153.5 216.5,153C 233.5,152.333 250.5,152.333 267.5,153C 269.751,153.748 271.084,155.248 271.5,157.5 Z"/></g>
<g><path style="opacity:1" fill="#367837" d="M 338.5,154.5 C 321.83,154.333 305.163,154.5 288.5,155C 287.421,155.956 286.255,156.789 285,157.5C 284.333,174.167 284.333,190.833 285,207.5C 285.925,208.047 286.758,208.713 287.5,209.5C 304.153,210.541 320.82,211.208 337.5,211.5C 321.008,212.497 304.342,212.83 287.5,212.5C 283.826,210.779 282.493,207.779 283.5,203.5C 284.107,192.577 283.44,181.91 281.5,171.5C 282.326,167.018 282.826,162.351 283,157.5C 283.465,156.069 284.299,154.903 285.5,154C 289.765,152.985 294.098,152.485 298.5,152.5C 312.002,152.976 325.335,153.642 338.5,154.5 Z"/></g>
<g><path style="opacity:0.004" fill="#000000" d="M 59.5,211.5 C 60.8333,212.167 60.8333,212.167 59.5,211.5 Z"/></g>
<g><path style="opacity:1" fill="#464b1b" d="M 201.5,203.5 C 201.833,203.5 202.167,203.5 202.5,203.5C 202.663,205.857 202.497,208.19 202,210.5C 200.933,211.191 199.766,211.691 198.5,212C 180.995,212.829 163.662,212.662 146.5,211.5C 163.675,211.83 180.675,211.497 197.5,210.5C 200.451,209.191 201.784,206.857 201.5,203.5 Z"/></g>
<g><path style="opacity:1" fill="#5a3016" d="M 287.5,213.5 C 297.806,214.431 308.139,215.931 318.5,218C 301.494,218.922 284.661,220.089 268,221.5C 263.693,220.743 263.526,219.243 267.5,217C 273.16,217.625 278.827,217.458 284.5,216.5C 279.735,216.878 275.068,215.878 270.5,213.5C 269.702,213.043 269.369,212.376 269.5,211.5C 270.496,211.586 271.329,211.252 272,210.5C 272.494,208.866 272.66,207.199 272.5,205.5C 275.167,205.5 277.833,205.5 280.5,205.5C 279.27,211.485 281.604,214.152 287.5,213.5 Z"/></g>
<g><path style="opacity:1" fill="#5a371e" d="M 212.5,202.5 C 212.833,202.5 213.167,202.5 213.5,202.5C 213.336,205.187 213.503,207.854 214,210.5C 215.067,211.191 216.234,211.691 217.5,212C 234.877,212.805 252.211,212.639 269.5,211.5C 269.369,212.376 269.702,213.043 270.5,213.5C 275.068,215.878 279.735,216.878 284.5,216.5C 278.827,217.458 273.16,217.625 267.5,217C 263.526,219.243 263.693,220.743 268,221.5C 284.661,220.089 301.494,218.922 318.5,218C 308.139,215.931 297.806,214.431 287.5,213.5C 305.17,213.667 322.836,213.5 340.5,213C 341.337,211.989 341.67,210.822 341.5,209.5C 346.515,210.085 351.515,210.752 356.5,211.5C 357.952,212.302 359.618,212.802 361.5,213C 343.825,216.51 326.158,219.01 308.5,220.5C 242.17,226.469 176.17,224.135 110.5,213.5C 110.389,212.883 110.056,212.383 109.5,212C 120.404,209.762 131.404,208.262 142.5,207.5C 142.833,207.5 143.167,207.5 143.5,207.5C 143.738,209.404 144.738,210.738 146.5,211.5C 163.662,212.662 180.995,212.829 198.5,212C 199.766,211.691 200.933,211.191 202,210.5C 202.497,208.19 202.663,205.857 202.5,203.5C 206.042,203.813 209.375,203.479 212.5,202.5 Z"/></g>
<g><path style="opacity:1" fill="#3e4f1a" d="M 341.5,209.5 C 341.67,210.822 341.337,211.989 340.5,213C 322.836,213.5 305.17,213.667 287.5,213.5C 287.5,213.167 287.5,212.833 287.5,212.5C 304.342,212.83 321.008,212.497 337.5,211.5C 338.833,210.833 340.167,210.167 341.5,209.5 Z"/></g>
<g><path style="opacity:0.004" fill="#000000" d="M 14.5,225.5 C 15.8333,226.167 15.8333,226.167 14.5,225.5 Z"/></g>
<g><path style="opacity:0.524" fill="#a6a09d" d="M 457.5,244.5 C 455.227,243.265 453.394,243.598 452,245.5C 449.002,243.919 445.835,242.753 442.5,242C 435.842,241.5 429.175,241.334 422.5,241.5C 422.649,242.552 422.483,243.552 422,244.5C 420.951,242.893 419.451,242.227 417.5,242.5C 431.082,238.076 444.415,238.743 457.5,244.5 Z"/></g>
<g><path style="opacity:0.255" fill="#737171" d="M 414.5,242.5 C 412.485,243.924 410.152,244.59 407.5,244.5C 409.515,243.076 411.848,242.41 414.5,242.5 Z"/></g>
<g><path style="opacity:1" fill="#e4e2e0" d="M 457.5,244.5 C 471.47,250.659 480.303,261.326 484,276.5C 487.223,292.177 487.223,307.844 484,323.5C 480.89,331.757 476.39,339.091 470.5,345.5C 468.805,346.011 467.139,346.678 465.5,347.5C 466.55,349.102 465.883,349.935 463.5,350C 464.416,350.278 465.082,350.778 465.5,351.5C 459.478,359.855 452.145,366.855 443.5,372.5C 441.973,372.427 440.973,373.094 440.5,374.5C 437.35,377.579 433.683,379.913 429.5,381.5C 427.973,381.427 426.973,382.094 426.5,383.5C 422.561,386.302 418.228,388.302 413.5,389.5C 411.62,389.229 410.287,389.896 409.5,391.5C 406.171,392.499 402.838,393.499 399.5,394.5C 397.102,394.259 395.102,394.926 393.5,396.5C 389.606,397.593 385.606,398.26 381.5,398.5C 379.801,398.66 378.134,398.494 376.5,398C 379.145,392.394 381.979,386.894 385,381.5C 386.844,373.514 390.344,366.514 395.5,360.5C 407.873,355.199 419.873,349.032 431.5,342C 437.036,337.629 442.036,332.796 446.5,327.5C 448.81,323.219 450.81,318.886 452.5,314.5C 454.28,313.01 454.946,311.01 454.5,308.5C 455.737,294.142 450.403,282.975 438.5,275C 432.997,272.436 427.33,271.936 421.5,273.5C 419.533,273.739 417.699,273.406 416,272.5C 415.405,276.082 414.071,276.416 412,273.5C 411.805,274.819 411.972,276.153 412.5,277.5C 410.973,277.427 409.973,278.094 409.5,279.5C 408.167,280.5 406.833,281.5 405.5,282.5C 403.952,282.179 403.285,281.179 403.5,279.5C 402.889,267.913 403.556,256.58 405.5,245.5C 405.842,244.662 406.508,244.328 407.5,244.5C 410.152,244.59 412.485,243.924 414.5,242.5C 415.5,242.5 416.5,242.5 417.5,242.5C 419.451,242.227 420.951,242.893 422,244.5C 422.483,243.552 422.649,242.552 422.5,241.5C 429.175,241.334 435.842,241.5 442.5,242C 445.835,242.753 449.002,243.919 452,245.5C 453.394,243.598 455.227,243.265 457.5,244.5 Z"/></g>
<g><path style="opacity:0.004" fill="#000000" d="M 50.5,257.5 C 51.8333,258.167 51.8333,258.167 50.5,257.5 Z"/></g>
<g><path style="opacity:0.98" fill="#999795" d="M 421.5,273.5 C 418.686,275.07 415.686,276.403 412.5,277.5C 411.972,276.153 411.805,274.819 412,273.5C 414.071,276.416 415.405,276.082 416,272.5C 417.699,273.406 419.533,273.739 421.5,273.5 Z"/></g>
<g><path style="opacity:0.004" fill="#2f2f2d" d="M 412.5,277.5 C 412.027,278.906 411.027,279.573 409.5,279.5C 409.973,278.094 410.973,277.427 412.5,277.5 Z"/></g>
<g><path style="opacity:0.084" fill="#84837c" d="M 403.5,279.5 C 403.285,281.179 403.952,282.179 405.5,282.5C 405.217,283.289 404.717,283.956 404,284.5C 403.824,288.688 403.324,292.688 402.5,296.5C 402.178,290.642 402.511,284.975 403.5,279.5 Z"/></g>
<g><path style="opacity:0.42" fill="#757272" d="M 454.5,308.5 C 454.946,311.01 454.28,313.01 452.5,314.5C 452.595,312.214 453.262,310.214 454.5,308.5 Z"/></g>
<g><path style="opacity:0.906" fill="#a09d9c" d="M 470.5,345.5 C 469.581,348.089 467.914,350.089 465.5,351.5C 465.082,350.778 464.416,350.278 463.5,350C 465.883,349.935 466.55,349.102 465.5,347.5C 467.139,346.678 468.805,346.011 470.5,345.5 Z"/></g>
<g><path style="opacity:0.004" fill="#000000" d="M 479.5,348.5 C 480.833,349.167 480.833,349.167 479.5,348.5 Z"/></g>
<g><path style="opacity:0.004" fill="#000000" d="M 479.5,350.5 C 480.833,351.167 480.833,351.167 479.5,350.5 Z"/></g>
<g><path style="opacity:0.125" fill="#474747" d="M 81.5,371.5 C 83.1042,372.287 83.7709,373.62 83.5,375.5C 82.3263,374.486 81.6596,373.153 81.5,371.5 Z"/></g>
<g><path style="opacity:0.008" fill="#31302f" d="M 443.5,372.5 C 443.027,373.906 442.027,374.573 440.5,374.5C 440.973,373.094 441.973,372.427 443.5,372.5 Z"/></g>
<g><path style="opacity:0.004" fill="#000000" d="M 473.5,375.5 C 474.833,376.167 474.833,376.167 473.5,375.5 Z"/></g>
<g><path style="opacity:0.004" fill="#262626" d="M 429.5,381.5 C 429.027,382.906 428.027,383.573 426.5,383.5C 426.973,382.094 427.973,381.427 429.5,381.5 Z"/></g>
<g><path style="opacity:0.004" fill="#312e2c" d="M 413.5,389.5 C 412.486,390.674 411.153,391.34 409.5,391.5C 410.287,389.896 411.62,389.229 413.5,389.5 Z"/></g>
<g><path style="opacity:0.016" fill="#444342" d="M 399.5,394.5 C 397.786,395.738 395.786,396.405 393.5,396.5C 395.102,394.926 397.102,394.259 399.5,394.5 Z"/></g>
<g><path style="opacity:0.004" fill="#000000" d="M 65.5,404.5 C 66.8333,405.167 66.8333,405.167 65.5,404.5 Z"/></g>
<g><path style="opacity:0.004" fill="#000000" d="M 371.5,411.5 C 372.833,412.167 372.833,412.167 371.5,411.5 Z"/></g>
<g><path style="opacity:0.004" fill="#1e1e1e" d="M 104.5,414.5 C 105.401,415.29 106.068,416.29 106.5,417.5C 104.952,417.179 104.285,416.179 104.5,414.5 Z"/></g>
<g><path style="opacity:0.988" fill="#989492" d="M 366.5,414.5 C 364.237,418.103 361.57,421.436 358.5,424.5C 361.977,425.167 365.311,425.834 368.5,426.5C 364.154,426.666 359.821,426.499 355.5,426C 356.402,423.798 357.402,421.632 358.5,419.5C 359.086,419.709 359.586,420.043 360,420.5C 360.981,417.944 362.481,415.777 364.5,414C 364.167,413.667 363.833,413.333 363.5,413C 365.157,412.275 366.157,412.775 366.5,414.5 Z"/></g>
<g><path style="opacity:0.004" fill="#000000" d="M 449.5,423.5 C 450.833,424.167 450.833,424.167 449.5,423.5 Z"/></g>
<g><path style="opacity:0.004" fill="#000000" d="M 422.5,427.5 C 423.833,428.167 423.833,428.167 422.5,427.5 Z"/></g>
<g><path style="opacity:1" fill="#c9c7c5" d="M 159.5,456.5 C 157.022,457.164 154.355,457.497 151.5,457.5C 127.483,455.831 103.483,453.998 79.5,452C 54.5363,449.276 29.703,445.776 5,441.5C 3.5,442 2,442.5 0.5,443C 1.25244,443.671 1.58577,444.504 1.5,445.5C 0.833333,445.167 0.166667,444.833 -0.5,444.5C -0.5,442.833 -0.5,441.167 -0.5,439.5C 37.0944,434.228 74.761,429.562 112.5,425.5C 112.137,424.817 111.804,424.15 111.5,423.5C 112.117,423.389 112.617,423.056 113,422.5C 114,424.5 115,426.5 116,428.5C 127.604,442.539 142.104,451.872 159.5,456.5 Z"/></g>
<g><path style="opacity:1" fill="#e5e3e2" d="M 159.5,456.5 C 173.28,457.634 187.113,458.301 201,458.5C 211.986,458.878 222.819,457.878 233.5,455.5C 233.389,456.117 233.056,456.617 232.5,457C 246.815,457.988 261.148,458.488 275.5,458.5C 341.561,456.8 407.228,451.3 472.5,442C 470.3,445.19 467.3,447.023 463.5,447.5C 463.286,449.144 463.62,450.644 464.5,452C 458.794,452.316 455.461,455.149 454.5,460.5C 451.35,463.579 447.683,465.913 443.5,467.5C 441.973,467.427 440.973,468.094 440.5,469.5C 432.938,474.046 424.938,477.713 416.5,480.5C 414.447,480.402 412.78,481.069 411.5,482.5C 397.852,487.38 383.852,491.047 369.5,493.5C 365.878,493.322 362.544,493.989 359.5,495.5C 346.402,497.769 333.069,499.102 319.5,499.5C 319.167,501.5 318.833,503.5 318.5,505.5C 263.496,505.833 208.496,505.5 153.5,504.5C 152.754,503.264 152.421,501.93 152.5,500.5C 118.27,500.718 85.2705,494.718 53.5,482.5C 52.5707,481.685 51.5707,480.852 50.5,480C 50.8333,479.667 51.1667,479.333 51.5,479C 50.2341,478.691 49.0674,478.191 48,477.5C 46.9887,478.337 45.8221,478.67 44.5,478.5C 37.9826,475.547 31.6492,472.214 25.5,468.5C 24.7322,465.438 22.7322,463.772 19.5,463.5C 12.2431,458.849 6.24314,452.849 1.5,445.5C 1.58577,444.504 1.25244,443.671 0.5,443C 2,442.5 3.5,442 5,441.5C 29.703,445.776 54.5363,449.276 79.5,452C 103.483,453.998 127.483,455.831 151.5,457.5C 154.355,457.497 157.022,457.164 159.5,456.5 Z"/></g>
<g><path style="opacity:0.443" fill="#7a7574" d="M 19.5,463.5 C 22.7322,463.772 24.7322,465.438 25.5,468.5C 23.4602,466.823 21.4602,465.156 19.5,463.5 Z"/></g>
<g><path style="opacity:0.004" fill="#313131" d="M 443.5,467.5 C 443.027,468.906 442.027,469.573 440.5,469.5C 440.973,468.094 441.973,467.427 443.5,467.5 Z"/></g>
<g><path style="opacity:0.89" fill="#9f9d98" d="M 53.5,482.5 C 50.3549,481.426 47.3549,480.093 44.5,478.5C 45.8221,478.67 46.9887,478.337 48,477.5C 49.0674,478.191 50.2341,478.691 51.5,479C 51.1667,479.333 50.8333,479.667 50.5,480C 51.5707,480.852 52.5707,481.685 53.5,482.5 Z"/></g>
<g><path style="opacity:0.02" fill="#312e2e" d="M 416.5,480.5 C 415.22,481.931 413.553,482.598 411.5,482.5C 412.78,481.069 414.447,480.402 416.5,480.5 Z"/></g>
<g><path style="opacity:0.149" fill="#494241" d="M 369.5,493.5 C 366.411,494.785 363.078,495.451 359.5,495.5C 362.544,493.989 365.878,493.322 369.5,493.5 Z"/></g>
<g><path style="opacity:0.004" fill="#000000" d="M 359.5,502.5 C 360.833,503.167 360.833,503.167 359.5,502.5 Z"/></g>
<g><path style="opacity:0.004" fill="#000000" d="M 440.5,505.5 C 441.833,506.167 441.833,506.167 440.5,505.5 Z"/></g>
<g><path style="opacity:0.004" fill="#000000" d="M 461.5,506.5 C 462.833,507.167 462.833,507.167 461.5,506.5 Z"/></g>
</svg>
